<svg width="261" height="261" viewBox="0 0 261 261" fill="none" xmlns="http://www.w3.org/2000/svg">
<g filter="url(#filter0_d_303_17212)">
</g>
<g clip-path="url(#clip0_303_17212)">
<path d="M179.552 117.695C179.282 117.475 176.752 115.565 171.412 115.565C170.002 115.575 168.594 115.695 167.202 115.925C166.831 113.74 166.002 111.658 164.77 109.816C163.537 107.974 161.93 106.413 160.052 105.235L158.622 104.405L157.682 105.775C156.489 107.611 155.626 109.642 155.132 111.775C154.637 113.64 154.53 115.587 154.819 117.495C155.108 119.403 155.787 121.231 156.812 122.865C154.526 123.904 152.061 124.495 149.552 124.605H83.6822C82.8622 124.61 82.0765 124.935 81.4921 125.51C80.9076 126.085 80.5704 126.865 80.5522 127.685C80.4827 133.454 81.462 139.187 83.4422 144.605C85.7122 150.605 89.0822 154.945 93.4422 157.605C98.3622 160.605 106.352 162.345 115.442 162.345C119.538 162.356 123.626 161.984 127.652 161.235C133.248 160.207 138.632 158.25 143.582 155.445C147.666 153.107 151.344 150.121 154.472 146.605C159.692 140.705 162.802 134.125 165.112 128.275H166.032C168.08 128.355 170.123 128.025 172.041 127.303C173.96 126.582 175.714 125.485 177.202 124.075C178.487 122.848 179.49 121.357 180.142 119.705L180.552 118.515L179.552 117.695Z" fill="#666"/>
<path d="M89.7922 122.605H98.6122C98.7142 122.605 98.8151 122.585 98.9092 122.546C99.0033 122.506 99.0886 122.449 99.1603 122.376C99.2319 122.304 99.2884 122.217 99.3265 122.123C99.3646 122.028 99.3835 121.927 99.3822 121.825V114.005C99.3835 113.905 99.3649 113.805 99.3273 113.711C99.2897 113.618 99.2339 113.533 99.1632 113.461C99.0925 113.39 99.0083 113.333 98.9154 113.294C98.8225 113.255 98.7229 113.235 98.6222 113.235H89.7922C89.6907 113.234 89.59 113.253 89.496 113.291C89.4019 113.329 89.3165 113.386 89.2448 113.458C89.173 113.529 89.1163 113.615 89.0781 113.709C89.0399 113.803 89.0209 113.904 89.0222 114.005V121.865C89.0209 121.967 89.0398 122.068 89.0779 122.163C89.116 122.257 89.1726 122.344 89.2442 122.416C89.3158 122.489 89.4011 122.546 89.4952 122.586C89.5893 122.625 89.6903 122.645 89.7922 122.645V122.605Z" fill="#666"/>
<path d="M101.952 122.605H110.782C110.987 122.603 111.183 122.519 111.327 122.373C111.471 122.227 111.552 122.03 111.552 121.825V114.005C111.552 113.801 111.471 113.605 111.327 113.461C111.182 113.316 110.986 113.235 110.782 113.235H101.952C101.85 113.234 101.749 113.253 101.655 113.291C101.56 113.329 101.474 113.386 101.401 113.457C101.329 113.529 101.271 113.614 101.232 113.708C101.192 113.802 101.172 113.903 101.172 114.005V121.865C101.175 122.071 101.258 122.268 101.404 122.414C101.549 122.56 101.746 122.643 101.952 122.645" fill="#666"/>
<path d="M114.302 122.605H123.132C123.337 122.603 123.533 122.519 123.677 122.373C123.821 122.227 123.902 122.03 123.902 121.825V114.005C123.902 113.904 123.882 113.804 123.844 113.711C123.805 113.617 123.748 113.532 123.677 113.461C123.605 113.389 123.52 113.332 123.427 113.294C123.333 113.255 123.233 113.235 123.132 113.235H114.302C114.201 113.234 114.1 113.253 114.006 113.291C113.912 113.329 113.827 113.386 113.755 113.458C113.683 113.529 113.626 113.615 113.588 113.709C113.55 113.803 113.531 113.904 113.532 114.005V121.865C113.531 121.967 113.55 122.068 113.588 122.163C113.626 122.257 113.683 122.344 113.754 122.416C113.826 122.489 113.911 122.546 114.005 122.586C114.099 122.625 114.2 122.645 114.302 122.645V122.605Z" fill="#666"/>
<path d="M126.552 122.605H135.382C135.484 122.605 135.585 122.585 135.679 122.546C135.773 122.506 135.859 122.449 135.93 122.376C136.002 122.304 136.058 122.217 136.097 122.123C136.135 122.028 136.154 121.927 136.152 121.825V114.005C136.154 113.904 136.135 113.803 136.096 113.709C136.058 113.615 136.001 113.529 135.93 113.458C135.858 113.386 135.773 113.329 135.678 113.291C135.584 113.253 135.484 113.234 135.382 113.235H126.552C126.348 113.235 126.152 113.316 126.008 113.461C125.863 113.605 125.782 113.801 125.782 114.005V121.865C125.792 122.063 125.878 122.25 126.021 122.388C126.164 122.525 126.354 122.603 126.552 122.605Z" fill="#666"/>
<path d="M101.952 111.325H110.782C110.978 111.326 111.167 111.251 111.31 111.118C111.453 110.984 111.539 110.801 111.552 110.605V102.695C111.552 102.491 111.471 102.295 111.327 102.151C111.182 102.006 110.986 101.925 110.782 101.925H101.952C101.851 101.924 101.75 101.943 101.656 101.981C101.562 102.019 101.476 102.076 101.405 102.148C101.333 102.219 101.276 102.305 101.238 102.399C101.2 102.493 101.181 102.594 101.182 102.695V110.605C101.193 110.801 101.278 110.986 101.422 111.12C101.566 111.255 101.756 111.328 101.952 111.325Z" fill="#666"/>
<path d="M114.302 111.325H123.132C123.233 111.325 123.333 111.305 123.427 111.267C123.52 111.228 123.605 111.171 123.677 111.1C123.748 111.028 123.805 110.943 123.844 110.85C123.882 110.756 123.902 110.656 123.902 110.555V102.695C123.902 102.594 123.882 102.494 123.844 102.4C123.805 102.307 123.748 102.222 123.677 102.151C123.605 102.079 123.52 102.022 123.427 101.984C123.333 101.945 123.233 101.925 123.132 101.925H114.302C114.201 101.924 114.1 101.943 114.006 101.981C113.912 102.019 113.827 102.076 113.755 102.148C113.683 102.219 113.626 102.305 113.588 102.399C113.55 102.493 113.531 102.594 113.532 102.695V110.605C113.543 110.801 113.629 110.986 113.772 111.12C113.916 111.255 114.106 111.328 114.302 111.325Z" fill="#666"/>
<path d="M126.552 111.325H135.382C135.484 111.326 135.584 111.307 135.678 111.269C135.773 111.231 135.858 111.174 135.93 111.103C136.001 111.031 136.058 110.945 136.096 110.851C136.135 110.757 136.154 110.657 136.152 110.555V102.695C136.154 102.594 136.135 102.493 136.096 102.399C136.058 102.305 136.001 102.219 135.93 102.148C135.858 102.076 135.773 102.019 135.678 101.981C135.584 101.943 135.484 101.924 135.382 101.925H126.552C126.348 101.925 126.152 102.006 126.008 102.151C125.863 102.295 125.782 102.491 125.782 102.695V110.605C125.795 110.801 125.882 110.984 126.025 111.118C126.168 111.251 126.356 111.326 126.552 111.325Z" fill="#666"/>
<path d="M126.552 100.015H135.382C135.586 100.015 135.782 99.934 135.927 99.7896C136.071 99.6452 136.152 99.4494 136.152 99.2452V91.3752C136.154 91.2693 136.134 91.1642 136.092 91.0666C136.051 90.9691 135.99 90.8813 135.913 90.8088C135.835 90.7363 135.744 90.6807 135.644 90.6456C135.544 90.6106 135.438 90.5968 135.332 90.6052H126.552C126.348 90.6052 126.152 90.6863 126.008 90.8307C125.863 90.9751 125.782 91.1709 125.782 91.3752V99.2452C125.785 99.4486 125.867 99.6429 126.011 99.7868C126.154 99.9306 126.349 100.013 126.552 100.015Z" fill="#666"/>
<path d="M138.812 122.605H147.642C147.744 122.605 147.845 122.585 147.939 122.546C148.033 122.506 148.119 122.449 148.19 122.376C148.262 122.304 148.318 122.217 148.357 122.123C148.395 122.028 148.414 121.927 148.412 121.825V114.005C148.414 113.904 148.395 113.803 148.356 113.709C148.318 113.615 148.261 113.529 148.19 113.458C148.118 113.386 148.033 113.329 147.938 113.291C147.844 113.253 147.744 113.234 147.642 113.235H138.812C138.711 113.235 138.611 113.255 138.518 113.294C138.424 113.332 138.339 113.389 138.268 113.461C138.196 113.532 138.14 113.617 138.101 113.711C138.062 113.804 138.042 113.904 138.042 114.005V121.865C138.042 122.07 138.123 122.267 138.267 122.413C138.411 122.559 138.607 122.643 138.812 122.645" fill="#666"/>
</g>
<defs>
<filter id="filter0_d_303_17212" x="0.723999" y="0.890869" width="260" height="260" filterUnits="userSpaceOnUse" color-interpolation-filters="sRGB">
<feFlood flood-opacity="0" result="BackgroundImageFix"/>
<feColorMatrix in="SourceAlpha" type="matrix" values="0 0 0 0 0 0 0 0 0 0 0 0 0 0 0 0 0 0 127 0" result="hardAlpha"/>
<feOffset dy="4"/>
<feGaussianBlur stdDeviation="20"/>
<feComposite in2="hardAlpha" operator="out"/>
<feColorMatrix type="matrix" values="0 0 0 0 0.0367917 0 0 0 0 0.0348958 0 0 0 0 0.0484375 0 0 0 0.1 0"/>
<feBlend mode="normal" in2="BackgroundImageFix" result="effect1_dropShadow_303_17212"/>
<feBlend mode="normal" in="SourceGraphic" in2="effect1_dropShadow_303_17212" result="shape"/>
</filter>
<clipPath id="clip0_303_17212">
<rect width="100" height="71.76" fill="white" transform="translate(80.5522 90.6051)"/>
</clipPath>
</defs>
</svg>
