<svg width="261" height="261" viewBox="0 0 261 261" fill="none" xmlns="http://www.w3.org/2000/svg">
<g filter="url(#filter0_d_303_17116)">
</g>
<g clip-path="url(#clip0_303_17116)">
<path d="M178.662 121.728L135.002 78.0782C134.406 77.4789 133.697 77.0034 132.916 76.6789C132.135 76.3544 131.298 76.1874 130.452 76.1874C129.607 76.1874 128.769 76.3544 127.989 76.6789C127.208 77.0034 126.499 77.4789 125.902 78.0782L116.832 87.1882L128.332 98.6882C129.688 98.227 131.147 98.156 132.542 98.4831C133.936 98.8102 135.211 99.5223 136.221 100.538C137.231 101.554 137.935 102.834 138.253 104.23C138.572 105.627 138.492 107.085 138.022 108.438L149.102 119.478C150.754 118.9 152.554 118.905 154.203 119.493C155.851 120.082 157.248 121.217 158.16 122.711C159.072 124.205 159.445 125.966 159.215 127.702C158.986 129.437 158.168 131.041 156.899 132.246C155.629 133.451 153.985 134.184 152.24 134.324C150.496 134.463 148.756 134 147.311 133.012C145.867 132.023 144.805 130.569 144.303 128.893C143.801 127.216 143.889 125.418 144.552 123.798L134.172 113.458V140.658C135.626 141.377 136.814 142.538 137.566 143.975C138.317 145.412 138.593 147.05 138.354 148.654C138.115 150.258 137.373 151.745 136.235 152.9C135.097 154.056 133.622 154.82 132.022 155.083C130.422 155.347 128.78 155.096 127.331 154.366C125.883 153.636 124.704 152.466 123.963 151.023C123.223 149.58 122.959 147.94 123.211 146.338C123.462 144.736 124.215 143.255 125.362 142.108C126.084 141.395 126.936 140.828 127.872 140.438V112.988C126.933 112.598 126.08 112.028 125.362 111.308C124.287 110.235 123.556 108.865 123.262 107.375C122.968 105.884 123.125 104.339 123.712 102.938L112.372 91.5982L82.4422 121.528C81.8426 122.126 81.3669 122.835 81.0423 123.617C80.7177 124.399 80.5506 125.237 80.5506 126.083C80.5506 126.93 80.7177 127.768 81.0423 128.549C81.3669 129.331 81.8426 130.041 82.4422 130.638L126.102 174.298C126.7 174.898 127.409 175.373 128.191 175.698C128.973 176.023 129.811 176.19 130.657 176.19C131.504 176.19 132.342 176.023 133.123 175.698C133.905 175.373 134.615 174.898 135.212 174.298L178.662 130.848C179.871 129.639 180.551 127.998 180.551 126.288C180.551 124.578 179.871 122.938 178.662 121.728Z" fill="#666"/>
</g>
<defs>
<filter id="filter0_d_303_17116" x="0.723999" y="0.593872" width="260" height="260" filterUnits="userSpaceOnUse" color-interpolation-filters="sRGB">
<feFlood flood-opacity="0" result="BackgroundImageFix"/>
<feColorMatrix in="SourceAlpha" type="matrix" values="0 0 0 0 0 0 0 0 0 0 0 0 0 0 0 0 0 0 127 0" result="hardAlpha"/>
<feOffset dy="4"/>
<feGaussianBlur stdDeviation="20"/>
<feComposite in2="hardAlpha" operator="out"/>
<feColorMatrix type="matrix" values="0 0 0 0 0.0367917 0 0 0 0 0.0348958 0 0 0 0 0.0484375 0 0 0 0.1 0"/>
<feBlend mode="normal" in2="BackgroundImageFix" result="effect1_dropShadow_303_17116"/>
<feBlend mode="normal" in="SourceGraphic" in2="effect1_dropShadow_303_17116" result="shape"/>
</filter>
<clipPath id="clip0_303_17116">
<rect width="100" height="100" fill="white" transform="translate(80.5522 76.1881)"/>
</clipPath>
</defs>
</svg>
