<svg width="260" height="260" viewBox="0 0 260 260" fill="none" xmlns="http://www.w3.org/2000/svg">
<g filter="url(#filter0_d_303_17139)">
</g>
<g clip-path="url(#clip0_303_17139)">
<path d="M93.905 166L85.905 76H174.095L166.095 166L129.905 176" fill="#666"/>
<path d="M129.995 168.34V83.3899H166.045L159.165 160.2" fill="#666"/>
<path d="M102.285 94.3999H129.995V105.4H114.395L115.395 116.7H129.995V127.7H105.305L102.285 94.3999ZM105.785 133.29H116.905L117.685 142.12L130.025 145.42V156.94L107.345 150.62" fill="black"/>
<path d="M157.615 94.3999H129.905V105.4H156.585L157.615 94.3999ZM155.615 116.74H129.905V127.74H143.565L142.275 142.12L129.905 145.42V156.89L152.515 150.62" fill="black"/>
</g>
<defs>
<filter id="filter0_d_303_17139" x="0" y="0" width="260" height="260" filterUnits="userSpaceOnUse" color-interpolation-filters="sRGB">
<feFlood flood-opacity="0" result="BackgroundImageFix"/>
<feColorMatrix in="SourceAlpha" type="matrix" values="0 0 0 0 0 0 0 0 0 0 0 0 0 0 0 0 0 0 127 0" result="hardAlpha"/>
<feOffset dy="4"/>
<feGaussianBlur stdDeviation="20"/>
<feComposite in2="hardAlpha" operator="out"/>
<feColorMatrix type="matrix" values="0 0 0 0 0.0367917 0 0 0 0 0.0348958 0 0 0 0 0.0484375 0 0 0 0.1 0"/>
<feBlend mode="normal" in2="BackgroundImageFix" result="effect1_dropShadow_303_17139"/>
<feBlend mode="normal" in="SourceGraphic" in2="effect1_dropShadow_303_17139" result="shape"/>
</filter>
<clipPath id="clip0_303_17139">
<rect width="88.19" height="100" fill="white" transform="translate(85.905 76)"/>
</clipPath>
</defs>
</svg>
