<svg width="261" height="261" viewBox="0 0 261 261" fill="none" xmlns="http://www.w3.org/2000/svg">
<g filter="url(#filter0_d_303_17144)">
</g>
<g clip-path="url(#clip0_303_17144)">
<path d="M173.97 116.94C175.15 113.636 175.577 110.11 175.22 106.62C174.801 103.124 173.743 99.7343 172.1 96.62C169.376 92.016 165.35 88.3209 160.53 86C155.637 83.7758 150.146 83.2275 144.91 84.44C142.451 81.9161 139.601 79.8056 136.47 78.19C133.244 76.6858 129.718 75.9368 126.16 76C120.794 75.9661 115.551 77.6054 111.16 80.69C106.85 83.75 103.667 88.1423 102.1 93.19C98.5631 94.1278 95.1907 95.6016 92.0999 97.56C89.4003 99.7791 87.0771 102.42 85.2199 105.38C82.4962 109.991 81.3976 115.381 82.0999 120.69C82.7233 125.991 84.8974 130.99 88.3499 135.06C87.1647 138.363 86.7375 141.89 87.0999 145.38C87.519 148.876 88.5765 152.266 90.2199 155.38C92.9402 159.984 96.9626 163.679 101.78 166C106.677 168.224 112.17 168.773 117.41 167.56C119.869 170.084 122.719 172.194 125.85 173.81C129.075 175.314 132.601 176.063 136.16 176C141.526 176.033 146.768 174.393 151.16 171.31C155.466 168.247 158.649 163.856 160.22 158.81C163.75 158.14 167.071 156.642 169.91 154.44C172.757 152.381 175.105 149.708 176.78 146.62C179.506 142.01 180.608 136.62 179.91 131.31C179.394 126.038 177.327 121.037 173.97 116.94ZM136.47 169.44C132.006 169.528 127.667 167.969 124.28 165.06C124.452 164.892 124.672 164.784 124.91 164.75L144.91 153.19C145.467 152.943 145.913 152.497 146.16 151.94C146.41 151.46 146.517 150.919 146.47 150.38V122.25L154.91 127.25V150.38C154.995 152.854 154.58 155.319 153.691 157.629C152.802 159.939 151.457 162.046 149.736 163.825C148.015 165.604 145.954 167.018 143.674 167.982C141.395 168.947 138.945 169.443 136.47 169.44ZM96.1599 152.25C93.8851 148.507 93.1033 144.044 93.9699 139.75C94.14 139.92 94.3615 140.029 94.5999 140.06L114.6 151.62C115.077 151.879 115.62 151.99 116.16 151.94C116.701 152.023 117.255 151.91 117.72 151.62L142.1 137.56V147.25L121.78 159.12C117.527 161.585 112.471 162.261 107.72 161C105.298 160.407 103.023 159.325 101.035 157.82C99.0474 156.315 97.3882 154.42 96.1599 152.25ZM90.8499 108.81C93.0558 105.078 96.4714 102.213 100.53 100.69V124.44C100.447 124.982 100.56 125.535 100.85 126C101.094 126.559 101.541 127.006 102.1 127.25L126.47 141.31L118.03 146.31L98.0299 134.75C95.9 133.547 94.03 131.933 92.5281 130.001C91.0261 128.07 89.9221 125.861 89.2799 123.5C87.9092 118.582 88.4709 113.327 90.8499 108.81ZM159.91 124.75L135.53 110.69L143.97 105.69L163.97 117.25C167.04 119.004 169.537 121.609 171.16 124.75C172.833 127.917 173.592 131.487 173.35 135.06C173.036 138.599 171.723 141.975 169.565 144.797C167.407 147.619 164.493 149.77 161.16 151V127.25C161.242 126.71 161.132 126.158 160.85 125.69C160.633 125.293 160.307 124.967 159.91 124.75ZM168.35 112.25C168.178 112.082 167.957 111.974 167.72 111.94L147.72 100.38C147.243 100.122 146.7 100.011 146.16 100.06C145.618 99.9757 145.065 100.089 144.6 100.38L120.22 114.44V104.75L140.53 92.88C143.671 91.1042 147.244 90.2385 150.85 90.38C154.456 90.4696 157.948 91.6672 160.85 93.81C163.702 95.9077 165.962 98.7088 167.41 101.94C168.659 105.226 168.984 108.792 168.35 112.25ZM115.85 129.75L107.41 124.75V101.31C107.362 97.7729 108.34 94.2977 110.225 91.3041C112.109 88.3105 114.82 85.9265 118.03 84.44C121.218 82.8395 124.832 82.2933 128.35 82.88C131.894 83.2975 135.249 84.7045 138.03 86.94C137.863 87.1087 137.645 87.2176 137.41 87.25L117.41 98.81C116.851 99.0542 116.404 99.5006 116.16 100.06C115.91 100.54 115.803 101.081 115.85 101.62V129.75ZM120.22 119.75L131.16 113.5L142.1 119.75V132.25L131.16 138.5L120.22 132.25V119.75Z" fill="#666"/>
</g>
<defs>
<filter id="filter0_d_303_17144" x="0.723999" y="0.405762" width="260" height="260" filterUnits="userSpaceOnUse" color-interpolation-filters="sRGB">
<feFlood flood-opacity="0" result="BackgroundImageFix"/>
<feColorMatrix in="SourceAlpha" type="matrix" values="0 0 0 0 0 0 0 0 0 0 0 0 0 0 0 0 0 0 127 0" result="hardAlpha"/>
<feOffset dy="4"/>
<feGaussianBlur stdDeviation="20"/>
<feComposite in2="hardAlpha" operator="out"/>
<feColorMatrix type="matrix" values="0 0 0 0 0.0367917 0 0 0 0 0.0348958 0 0 0 0 0.0484375 0 0 0 0.1 0"/>
<feBlend mode="normal" in2="BackgroundImageFix" result="effect1_dropShadow_303_17144"/>
<feBlend mode="normal" in="SourceGraphic" in2="effect1_dropShadow_303_17144" result="shape"/>
</filter>
<clipPath id="clip0_303_17144">
<rect width="98.18" height="100" fill="white" transform="translate(81.9099 76)"/>
</clipPath>
</defs>
</svg>
