<svg width="261" height="261" viewBox="0 0 261 261" fill="none" xmlns="http://www.w3.org/2000/svg">
<g filter="url(#filter0_d_303_17120)">
</g>
<g clip-path="url(#clip0_303_17120)">
<path d="M178.59 135.791C178.29 134.915 177.749 134.142 177.029 133.56C176.309 132.978 175.439 132.611 174.52 132.501C173.435 132.369 172.334 132.43 171.27 132.681C169.626 133.05 167.953 133.271 166.27 133.341C170.773 125.715 174.211 117.509 176.49 108.951C179.88 95.7711 178.07 89.7711 175.95 87.0611C170.34 79.8911 162.12 76.0111 152.29 75.8911C148.127 75.8538 143.981 76.4368 139.99 77.6211C137.611 77.2096 135.204 76.9889 132.79 76.9611C128.404 76.7911 124.06 77.8658 120.26 80.0611C117.379 79.0767 114.423 78.3309 111.42 77.8311C102.76 76.4011 95.79 77.5111 90.69 81.1311C84.52 85.5011 81.69 93.1311 82.18 103.721C82.35 107.091 84.23 117.341 87.18 127.071C88.5554 131.833 90.363 136.458 92.58 140.891C95.24 145.891 98.09 148.891 101.29 149.991C102.737 150.469 104.287 150.551 105.776 150.227C107.266 149.903 108.641 149.187 109.76 148.151C110.269 148.755 110.869 149.275 111.54 149.691C112.582 150.331 113.715 150.81 114.9 151.111C118.789 152.195 122.929 151.945 126.66 150.401C126.66 151.021 126.66 151.601 126.71 152.111C126.71 152.931 126.71 153.731 126.78 154.481C126.99 159.561 127.33 163.481 128.35 166.271C128.41 166.421 128.48 166.661 128.56 166.901C129.195 169.242 130.421 171.38 132.12 173.111C134.135 174.972 136.798 175.97 139.54 175.891C140.711 175.886 141.877 175.755 143.02 175.501C146.73 174.701 150.96 173.501 154.02 169.121C156.91 165.001 158.32 158.781 158.57 149.001C158.57 148.721 158.64 148.451 158.66 148.201L158.73 147.691L159.41 147.751H159.58C163.437 147.902 167.281 147.219 170.85 145.751C173.09 144.751 180.3 140.891 178.6 135.751" fill="#666"/>
<path d="M172.12 136.791C160.86 139.121 160.12 135.301 160.12 135.301C172.01 117.601 176.98 95.1411 172.69 89.6411C160.99 74.6411 140.69 81.7411 140.39 81.9211H140.28C137.804 81.4242 135.286 81.1631 132.76 81.1411C128.488 80.9208 124.271 82.1896 120.83 84.7311C120.83 84.7311 84.68 69.8011 86.36 103.511C86.72 110.681 96.61 157.771 108.36 143.511C112.68 138.311 116.84 133.911 116.84 133.911C118.939 135.332 121.467 135.979 123.99 135.741L124.19 135.571C124.135 136.239 124.162 136.91 124.27 137.571C121.27 140.981 122.12 141.571 116.05 142.831C109.98 144.091 113.51 146.361 115.87 146.951C118.73 147.671 125.34 148.691 129.81 142.411L129.63 143.131C130.82 144.131 131.63 149.351 131.52 154.131C131.41 158.911 131.29 162.131 132.23 164.741C133.17 167.351 134.12 173.111 142.12 171.401C148.79 169.961 152.25 166.251 152.73 160.041C153.07 155.641 153.85 156.291 153.9 152.351L154.52 150.481C155.23 144.481 154.63 142.581 158.74 143.481L159.74 143.561C162.942 143.706 166.139 143.171 169.12 141.991C174.12 139.661 177.12 135.771 172.12 136.791Z" fill="#666"/>
<path d="M122.94 106.711C122.124 106.535 121.272 106.66 120.54 107.061C120.444 107.129 120.363 107.215 120.301 107.315C120.24 107.414 120.198 107.525 120.18 107.641C120.177 108.055 120.323 108.456 120.59 108.771C121.072 109.426 121.789 109.871 122.59 110.011H122.91C123.44 110.017 123.96 109.86 124.398 109.561C124.836 109.263 125.172 108.837 125.36 108.341C125.48 107.451 124.2 106.861 122.95 106.681L122.94 106.711ZM156.57 106.711C156.47 106.021 155.24 105.821 154.07 105.981C152.9 106.141 151.76 106.681 151.86 107.371C152.031 107.816 152.333 108.2 152.725 108.471C153.118 108.742 153.583 108.889 154.06 108.891H154.36C154.978 108.78 155.543 108.471 155.97 108.011C156.322 107.695 156.538 107.254 156.57 106.781" fill="#666"/>
<path d="M175.86 136.531C175.43 135.231 174.05 134.811 171.75 135.281C164.93 136.691 162.49 135.721 161.69 135.121C167.088 126.81 171.138 117.697 173.69 108.121C174.732 104.326 175.332 100.424 175.48 96.4911C175.54 92.8911 174.93 90.2511 173.67 88.6411C168.59 82.1411 161.12 78.6511 152.12 78.5511C147.883 78.4956 143.667 79.1722 139.66 80.5511C137.368 79.9862 135.02 79.6842 132.66 79.6511C128.41 79.4633 124.209 80.6254 120.66 82.9711C117.495 81.8099 114.227 80.9494 110.9 80.4011C102.99 79.1311 96.71 80.0911 92.23 83.2811C86.88 87.0511 84.41 93.8911 84.89 103.441C85.05 106.671 86.89 116.601 89.78 126.111C93.59 138.631 97.78 145.721 102.09 147.181C102.655 147.368 103.245 147.462 103.84 147.461C105.43 147.461 107.38 146.751 109.41 144.301C111.883 141.361 114.453 138.458 117.12 135.591C118.816 136.517 120.708 137.028 122.64 137.081C122.645 137.131 122.645 137.181 122.64 137.231C122.31 137.631 121.99 138.031 121.64 138.441C120.31 140.141 120.03 140.441 115.74 141.381C114.51 141.631 111.27 142.301 111.22 144.581C111.17 147.071 115.06 148.121 115.5 148.231C116.954 148.608 118.448 148.803 119.95 148.811C123.234 148.872 126.417 147.678 128.85 145.471C128.78 154.361 129.15 163.111 130.21 165.771C131.08 167.961 133.21 173.291 139.93 173.291C141.031 173.275 142.127 173.141 143.2 172.891C150.2 171.381 153.26 168.271 154.44 161.421C155.12 157.791 156.12 149.041 156.66 144.351C157.946 144.703 159.277 144.868 160.61 144.841C163.694 144.866 166.752 144.281 169.61 143.121C172.15 141.941 176.72 139.051 175.89 136.531H175.86ZM159.12 104.821C159.07 106.162 158.93 107.499 158.7 108.821C158.44 110.356 158.273 111.906 158.2 113.461C158.194 115.218 158.318 116.973 158.57 118.711C158.99 122.211 159.42 125.821 157.75 129.381C157.477 128.886 157.233 128.375 157.02 127.851C156.81 127.351 156.36 126.541 155.74 125.421C153.31 121.061 147.64 110.861 150.54 106.691C151.41 105.451 153.6 104.181 159.12 104.861V104.821ZM152.47 81.3611C160.55 81.5411 166.95 84.5711 171.47 90.3611C174.94 94.8011 171.12 115.041 160.06 132.501L159.72 132.081L159.58 131.891C162.44 127.161 161.88 122.471 161.38 118.321C161.151 116.721 161.034 115.107 161.03 113.491C161.103 112.047 161.26 110.607 161.5 109.181C161.818 107.436 161.966 105.665 161.94 103.891C161.983 103.643 161.983 103.389 161.94 103.141C161.76 101.231 159.58 95.4911 155.14 90.3011C152.195 86.8076 148.509 84.0134 144.35 82.1211C147.02 81.5675 149.744 81.3126 152.47 81.3611ZM107.26 142.511C105.03 145.211 103.48 144.691 102.98 144.511C99.67 143.401 95.83 136.401 92.45 125.281C89.52 115.671 87.81 106.001 87.68 103.281C87.25 94.7211 89.32 88.7511 93.84 85.5311C101.19 80.3111 113.27 83.4411 118.12 85.0211L117.9 85.2311C109.95 93.2911 110.12 107.081 110.12 107.891C110.12 108.221 110.12 108.681 110.19 109.311C110.496 113.17 110.409 117.05 109.93 120.891C109.602 123.082 109.776 125.319 110.439 127.432C111.103 129.546 112.238 131.481 113.76 133.091C114.074 133.422 114.408 133.732 114.76 134.021C113.39 135.491 110.43 138.731 107.27 142.541L107.26 142.511ZM115.77 131.121C114.543 129.816 113.628 128.25 113.095 126.54C112.561 124.831 112.423 123.022 112.69 121.251C113.202 117.249 113.309 113.205 113.01 109.181C113.01 108.841 113.01 108.541 112.96 108.311C114.12 107.311 119.51 104.381 123.36 105.261C124.214 105.452 124.988 105.904 125.574 106.555C126.16 107.205 126.529 108.022 126.63 108.891C128.93 119.571 126.94 124.011 125.33 127.591C125 128.331 124.69 129.021 124.42 129.741L124.21 130.301C123.697 131.608 123.259 132.944 122.9 134.301C121.56 134.278 120.238 133.985 119.013 133.44C117.788 132.896 116.685 132.11 115.77 131.131V131.121ZM116.18 145.511C115.519 145.353 114.89 145.082 114.32 144.711C114.962 144.439 115.633 144.241 116.32 144.121C121.32 143.121 122.15 142.341 123.85 140.121C124.24 139.621 124.69 139.061 125.3 138.371C126.21 137.371 126.63 137.521 127.39 137.841C127.748 138.035 128.062 138.302 128.311 138.624C128.561 138.946 128.741 139.316 128.84 139.711C128.942 139.999 128.98 140.306 128.95 140.61C128.921 140.914 128.825 141.208 128.67 141.471C125.11 146.471 119.92 146.401 116.2 145.471L116.18 145.511ZM142.61 170.181C136.43 171.511 134.25 168.351 132.8 164.731C131.87 162.401 131.42 151.891 131.74 140.261C131.741 140.109 131.721 139.958 131.68 139.811C131.638 139.535 131.581 139.261 131.51 138.991C131.299 138.189 130.915 137.443 130.385 136.805C129.854 136.168 129.19 135.654 128.44 135.301C127.562 134.872 126.565 134.752 125.61 134.961C125.949 133.723 126.356 132.504 126.83 131.311L127.04 130.751C127.27 130.111 127.57 129.461 127.88 128.751C129.55 125.011 131.88 119.881 129.36 108.311C128.42 103.981 125.3 101.861 120.57 102.311C118.221 102.61 115.942 103.321 113.84 104.411L113.12 104.891C113.48 100.521 114.85 92.3611 119.96 87.2011C123.12 83.9411 127.4 82.3311 132.62 82.4211C136.564 82.461 140.451 83.3645 144.008 85.0679C147.566 86.7714 150.706 89.2335 153.21 92.2811C155.655 95.1454 157.563 98.4282 158.84 101.971C153.63 101.441 150.09 102.471 148.3 105.051C144.39 110.651 150.43 121.521 153.3 126.741C153.83 127.741 154.3 128.531 154.44 128.881C155.201 130.693 156.233 132.379 157.5 133.881C157.78 134.221 158.04 134.551 158.24 134.881C156.67 135.341 153.83 136.391 154.09 141.661C153.88 144.301 152.4 156.661 151.65 161.051C150.65 166.831 148.53 168.981 142.57 170.261L142.61 170.181ZM168.41 140.581C166.218 141.456 163.89 141.944 161.53 142.021C158.7 142.151 157.25 141.701 156.92 141.421C156.76 138.141 157.92 137.801 159.26 137.421C159.463 137.372 159.663 137.312 159.86 137.241C159.98 137.35 160.111 137.448 160.25 137.531C162.52 139.041 166.58 139.201 172.32 138.011H172.38C171.199 139.069 169.859 139.936 168.41 140.581Z" fill="black"/>
</g>
<defs>
<filter id="filter0_d_303_17120" x="0.932861" y="0.296875" width="260" height="260" filterUnits="userSpaceOnUse" color-interpolation-filters="sRGB">
<feFlood flood-opacity="0" result="BackgroundImageFix"/>
<feColorMatrix in="SourceAlpha" type="matrix" values="0 0 0 0 0 0 0 0 0 0 0 0 0 0 0 0 0 0 127 0" result="hardAlpha"/>
<feOffset dy="4"/>
<feGaussianBlur stdDeviation="20"/>
<feComposite in2="hardAlpha" operator="out"/>
<feColorMatrix type="matrix" values="0 0 0 0 0.0367917 0 0 0 0 0.0348958 0 0 0 0 0.0484375 0 0 0 0.1 0"/>
<feBlend mode="normal" in2="BackgroundImageFix" result="effect1_dropShadow_303_17120"/>
<feBlend mode="normal" in="SourceGraphic" in2="effect1_dropShadow_303_17120" result="shape"/>
</filter>
<clipPath id="clip0_303_17120">
<rect width="96.73" height="100" fill="white" transform="translate(82.12 75.8911)"/>
</clipPath>
</defs>
</svg>
