<svg width="261" height="261" viewBox="0 0 261 261" fill="none" xmlns="http://www.w3.org/2000/svg">
<g filter="url(#filter0_d_303_17205)">
</g>
<g clip-path="url(#clip0_303_17205)">
<path fill-rule="evenodd" clip-rule="evenodd" d="M91.015 144.64C90.5243 143.849 90.2643 142.936 90.2643 142.005C90.2643 141.074 90.5243 140.161 91.015 139.37L128.415 78.37C128.891 77.6092 129.564 76.9906 130.361 76.5792C131.159 76.1679 132.053 75.9789 132.949 76.032C133.845 76.0852 134.71 76.3787 135.454 76.8815C136.198 77.3844 136.792 78.0781 137.175 78.89L171.295 153C171.59 153.645 171.744 154.345 171.748 155.054C171.751 155.764 171.604 156.465 171.316 157.113C171.027 157.761 170.604 158.34 170.075 158.812C169.545 159.284 168.922 159.638 168.245 159.85L115.065 175.79C114.026 176.097 112.915 176.059 111.899 175.68C110.884 175.301 110.019 174.603 109.435 173.69L91.015 144.64ZM132.685 96.21C132.761 95.816 132.962 95.457 133.258 95.1859C133.553 94.9148 133.929 94.746 134.328 94.7046C134.727 94.6631 135.129 94.7511 135.474 94.9555C135.819 95.16 136.089 95.4701 136.245 95.84L159.795 150.36C159.899 150.602 159.951 150.864 159.947 151.127C159.943 151.391 159.883 151.65 159.772 151.889C159.66 152.128 159.5 152.341 159.3 152.513C159.101 152.686 158.867 152.814 158.615 152.89L121.895 163.89C121.586 163.98 121.26 163.99 120.946 163.917C120.633 163.844 120.344 163.692 120.106 163.475C119.869 163.258 119.692 162.983 119.592 162.677C119.492 162.372 119.472 162.045 119.535 161.73L132.685 96.21Z" fill="#666"/>
</g>
<defs>
<filter id="filter0_d_303_17205" x="0.723999" y="0.405762" width="260" height="260" filterUnits="userSpaceOnUse" color-interpolation-filters="sRGB">
<feFlood flood-opacity="0" result="BackgroundImageFix"/>
<feColorMatrix in="SourceAlpha" type="matrix" values="0 0 0 0 0 0 0 0 0 0 0 0 0 0 0 0 0 0 127 0" result="hardAlpha"/>
<feOffset dy="4"/>
<feGaussianBlur stdDeviation="20"/>
<feComposite in2="hardAlpha" operator="out"/>
<feColorMatrix type="matrix" values="0 0 0 0 0.0367917 0 0 0 0 0.0348958 0 0 0 0 0.0484375 0 0 0 0.1 0"/>
<feBlend mode="normal" in2="BackgroundImageFix" result="effect1_dropShadow_303_17205"/>
<feBlend mode="normal" in="SourceGraphic" in2="effect1_dropShadow_303_17205" result="shape"/>
</filter>
<clipPath id="clip0_303_17205">
<rect width="81.51" height="100" fill="white" transform="translate(90.245 76)"/>
</clipPath>
</defs>
</svg>
