<svg width="261" height="261" viewBox="0 0 261 261" fill="none" xmlns="http://www.w3.org/2000/svg">
<g filter="url(#filter0_d_303_17162)">
</g>
<g clip-path="url(#clip0_303_17162)">
<path fill-rule="evenodd" clip-rule="evenodd" d="M142.71 136.875L140.79 140.215C140.506 140.704 140.1 141.11 139.61 141.393C139.12 141.675 138.565 141.824 138 141.825H123.29C122.723 141.824 122.167 141.675 121.676 141.392C121.185 141.11 120.776 140.704 120.49 140.215L118.57 136.885L142.71 136.875ZM148.08 127.545L144.7 133.425H116.58L113.2 127.545H148.08ZM144.82 118.435L148.09 124.095H113.19L116.46 118.435H144.82ZM138 109.815C138.568 109.815 139.126 109.965 139.617 110.249C140.109 110.534 140.517 110.943 140.8 111.435L142.85 114.985H118.45L120.45 111.435C120.735 110.944 121.143 110.536 121.634 110.252C122.125 109.968 122.682 109.817 123.25 109.815H138Z" fill="#666"/>
<path d="M101.91 108.265C100.28 100.375 99.91 94.315 100.98 89.925C101.468 87.5145 102.695 85.3159 104.49 83.635C106.369 82.017 108.781 81.1545 111.26 81.215C115.56 81.215 120.09 83.215 124.92 86.905C127.089 88.6011 129.143 90.4384 131.07 92.405C131.244 92.1874 131.435 91.9834 131.64 91.795C137.64 86.435 142.71 83.115 147.04 81.795C149.372 81.0269 151.886 81.0059 154.23 81.735C156.571 82.5548 158.525 84.2157 159.71 86.395C161.86 90.125 162.43 95.035 161.63 101.095C161.265 103.834 160.72 106.547 160 109.215C160.303 109.248 160.602 109.315 160.89 109.415C168.52 111.935 173.89 114.655 177.19 117.765C179.028 119.392 180.311 121.553 180.86 123.945C181.329 126.38 180.869 128.902 179.57 131.015C177.42 134.745 173.47 137.685 167.83 140.015C165.33 141.035 162.764 141.887 160.15 142.565C160.281 142.864 160.382 143.176 160.45 143.495C162.08 151.395 162.45 157.445 161.38 161.845C160.89 164.252 159.664 166.447 157.87 168.125C155.993 169.747 153.58 170.613 151.1 170.555C146.79 170.555 142.27 168.555 137.43 164.855C135.217 163.12 133.125 161.236 131.17 159.215C130.948 159.585 130.676 159.921 130.36 160.215C124.36 165.565 119.29 168.895 114.96 170.215C112.631 170.993 110.118 171.024 107.77 170.305C105.429 169.485 103.475 167.824 102.29 165.645C100.14 161.915 99.57 157.005 100.37 150.945C100.767 148.111 101.358 145.308 102.14 142.555C101.801 142.516 101.466 142.446 101.14 142.345C93.51 139.815 88.14 137.095 84.84 133.995C83.0038 132.349 81.7277 130.171 81.19 127.765C80.7212 125.33 81.1814 122.808 82.48 120.695C84.63 116.965 88.58 114.025 94.22 111.695C96.8008 110.643 99.4503 109.767 102.15 109.075C102.048 108.812 101.967 108.541 101.91 108.265Z" fill="#666"/>
<path fill-rule="evenodd" clip-rule="evenodd" d="M121.49 105.755C125.437 105.435 129.51 105.295 133.71 105.335C133.9 105.338 134.089 105.303 134.265 105.232C134.441 105.162 134.602 105.057 134.738 104.924C134.873 104.791 134.981 104.633 135.056 104.458C135.13 104.283 135.169 104.095 135.17 103.905C135.172 103.569 135.055 103.243 134.84 102.985C125.293 91.2317 117.43 85.355 111.25 85.355C104.883 85.355 103.067 92.385 105.8 106.445C105.873 106.814 106.087 107.14 106.398 107.353C106.708 107.567 107.089 107.65 107.46 107.585C112.333 106.718 117.01 106.108 121.49 105.755Z" fill="black"/>
<path fill-rule="evenodd" clip-rule="evenodd" d="M143.68 107.685C145.96 110.975 148.16 114.465 150.25 118.135C150.344 118.303 150.471 118.451 150.624 118.569C150.776 118.688 150.95 118.775 151.137 118.825C151.323 118.876 151.517 118.888 151.708 118.862C151.9 118.837 152.084 118.773 152.25 118.675C152.538 118.507 152.76 118.246 152.88 117.935C158.293 103.768 159.417 93.9983 156.25 88.625C153.023 83.0783 145.983 84.995 135.13 94.375C134.853 94.6248 134.682 94.9712 134.652 95.3432C134.622 95.7151 134.736 96.0843 134.97 96.375C138.203 100.195 141.107 103.965 143.68 107.685Z" fill="black"/>
<path fill-rule="evenodd" clip-rule="evenodd" d="M153.26 127.485C151.547 131.072 149.627 134.678 147.5 138.305C147.4 138.469 147.333 138.652 147.304 138.842C147.276 139.032 147.285 139.226 147.333 139.413C147.38 139.599 147.465 139.774 147.581 139.927C147.697 140.081 147.843 140.209 148.01 140.305C148.31 140.486 148.666 140.55 149.01 140.485C163.89 138.045 172.89 134.138 176.01 128.765C179.21 123.225 174.077 118.148 160.61 113.535C160.254 113.412 159.865 113.433 159.525 113.594C159.185 113.755 158.921 114.042 158.79 114.395C157.043 119.048 155.2 123.412 153.26 127.485Z" fill="black"/>
<path fill-rule="evenodd" clip-rule="evenodd" d="M141.05 146.065C137.09 146.385 133.013 146.525 128.82 146.485C128.44 146.482 128.074 146.63 127.802 146.896C127.531 147.162 127.375 147.525 127.37 147.905C127.366 148.241 127.483 148.568 127.7 148.825C137.233 160.585 145.097 166.465 151.29 166.465C157.657 166.465 159.473 159.435 156.74 145.375C156.707 145.19 156.639 145.013 156.537 144.854C156.436 144.695 156.305 144.558 156.151 144.451C155.997 144.343 155.823 144.266 155.639 144.226C155.455 144.186 155.265 144.182 155.08 144.215C150.21 145.095 145.53 145.715 141.05 146.065Z" fill="black"/>
<path fill-rule="evenodd" clip-rule="evenodd" d="M118.32 144.315C116.04 141.025 113.84 137.535 111.75 133.865C111.657 133.696 111.53 133.547 111.378 133.428C111.226 133.308 111.051 133.221 110.865 133.171C110.678 133.12 110.483 133.108 110.292 133.134C110.1 133.161 109.916 133.226 109.75 133.325C109.458 133.488 109.234 133.751 109.12 134.065C103.72 148.232 102.587 158.002 105.72 163.375C108.947 168.922 115.987 167.005 126.84 157.625C127.117 157.375 127.288 157.029 127.318 156.657C127.348 156.285 127.234 155.916 127 155.625C123.787 151.805 120.893 148.035 118.32 144.315Z" fill="black"/>
<path fill-rule="evenodd" clip-rule="evenodd" d="M108.74 123.975C110.453 120.388 112.373 116.778 114.5 113.145C114.679 112.82 114.727 112.439 114.634 112.08C114.541 111.721 114.314 111.412 114 111.215C113.699 111.037 113.343 110.977 113 111.045C98.1333 113.458 89.1533 117.352 86.06 122.725C82.86 128.265 87.9933 133.342 101.46 137.955C101.817 138.08 102.209 138.059 102.55 137.896C102.891 137.733 103.153 137.441 103.28 137.085C104.98 132.418 106.8 128.048 108.74 123.975Z" fill="black"/>
<path fill-rule="evenodd" clip-rule="evenodd" d="M124.47 109.995H136.81C137.697 109.991 138.57 110.223 139.338 110.668C140.106 111.112 140.742 111.753 141.18 112.525L147.37 123.315C147.809 124.075 148.04 124.937 148.04 125.815C148.04 126.693 147.809 127.555 147.37 128.315L141.18 139.115C140.742 139.887 140.106 140.528 139.338 140.972C138.57 141.417 137.697 141.649 136.81 141.645H124.47C123.584 141.647 122.714 141.414 121.948 140.97C121.182 140.525 120.548 139.885 120.11 139.115L113.91 128.325C113.471 127.565 113.24 126.703 113.24 125.825C113.24 124.947 113.471 124.085 113.91 123.325L120.11 112.535C120.546 111.763 121.18 111.121 121.946 110.675C122.712 110.228 123.583 109.994 124.47 109.995ZM134.93 113.215C135.818 113.212 136.692 113.446 137.46 113.892C138.228 114.339 138.863 114.982 139.3 115.755L143.62 123.285C144.059 124.045 144.29 124.907 144.29 125.785C144.29 126.663 144.059 127.525 143.62 128.285L139.3 135.855C138.862 136.627 138.226 137.268 137.458 137.712C136.69 138.157 135.817 138.389 134.93 138.385H126.35C125.466 138.386 124.598 138.152 123.834 137.707C123.069 137.263 122.437 136.624 122 135.855L117.68 128.325C117.241 127.565 117.01 126.703 117.01 125.825C117.01 124.947 117.241 124.085 117.68 123.325L122 115.785C122.432 115.009 123.062 114.362 123.827 113.91C124.591 113.458 125.462 113.219 126.35 113.215H134.93ZM132.93 116.785H128.38C127.489 116.781 126.613 117.016 125.843 117.464C125.073 117.912 124.437 118.558 124 119.335L121.72 123.335C121.281 124.095 121.05 124.957 121.05 125.835C121.05 126.713 121.281 127.575 121.72 128.335L124 132.335C124.44 133.105 125.076 133.744 125.844 134.187C126.612 134.629 127.484 134.86 128.37 134.855H132.9C133.786 134.86 134.658 134.629 135.426 134.187C136.194 133.744 136.83 133.105 137.27 132.335L139.55 128.335C139.989 127.575 140.22 126.713 140.22 125.835C140.22 124.957 139.989 124.095 139.55 123.335L137.27 119.335C136.83 118.565 136.194 117.926 135.426 117.484C134.658 117.041 133.786 116.81 132.9 116.815L132.93 116.785ZM131 120.215C131.886 120.21 132.758 120.441 133.526 120.884C134.294 121.326 134.93 121.965 135.37 122.735L135.69 123.295C136.122 124.057 136.349 124.919 136.349 125.795C136.349 126.671 136.122 127.533 135.69 128.295L135.37 128.855C134.936 129.632 134.301 130.279 133.533 130.729C132.765 131.179 131.89 131.416 131 131.415H130.38C129.492 131.422 128.618 131.192 127.848 130.749C127.078 130.306 126.44 129.666 126 128.895L125.67 128.335C125.238 127.573 125.011 126.711 125.011 125.835C125.011 124.959 125.238 124.097 125.67 123.335L126 122.775C126.431 122.004 127.059 121.361 127.82 120.911C128.58 120.461 129.446 120.221 130.33 120.215H131ZM130.69 123.575C130.199 123.578 129.723 123.742 129.335 124.042C128.948 124.343 128.67 124.763 128.545 125.238C128.42 125.712 128.455 126.215 128.645 126.667C128.835 127.12 129.168 127.497 129.594 127.741C130.02 127.984 130.514 128.081 131.001 128.015C131.487 127.949 131.938 127.725 132.284 127.377C132.629 127.029 132.851 126.576 132.913 126.09C132.976 125.603 132.876 125.109 132.63 124.685C132.427 124.341 132.135 124.057 131.785 123.864C131.435 123.67 131.04 123.574 130.64 123.585L130.69 123.575Z" fill="black"/>
</g>
<defs>
<filter id="filter0_d_303_17162" x="0.723999" y="0.405762" width="260" height="260" filterUnits="userSpaceOnUse" color-interpolation-filters="sRGB">
<feFlood flood-opacity="0" result="BackgroundImageFix"/>
<feColorMatrix in="SourceAlpha" type="matrix" values="0 0 0 0 0 0 0 0 0 0 0 0 0 0 0 0 0 0 127 0" result="hardAlpha"/>
<feOffset dy="4"/>
<feGaussianBlur stdDeviation="20"/>
<feComposite in2="hardAlpha" operator="out"/>
<feColorMatrix type="matrix" values="0 0 0 0 0.0367917 0 0 0 0 0.0348958 0 0 0 0 0.0484375 0 0 0 0.1 0"/>
<feBlend mode="normal" in2="BackgroundImageFix" result="effect1_dropShadow_303_17162"/>
<feBlend mode="normal" in="SourceGraphic" in2="effect1_dropShadow_303_17162" result="shape"/>
</filter>
<clipPath id="clip0_303_17162">
<rect width="100" height="89.57" fill="white" transform="translate(81 81.215)"/>
</clipPath>
</defs>
</svg>
