<svg width="261" height="260" viewBox="0 0 261 260" fill="none" xmlns="http://www.w3.org/2000/svg">
<g filter="url(#filter0_d_303_17226)">
</g>
<g clip-path="url(#clip0_303_17226)">
<path d="M131.11 134.414C132.854 134.416 134.561 133.901 136.012 132.933C137.464 131.965 138.596 130.588 139.265 128.976C139.934 127.365 140.11 125.591 139.771 123.88C139.432 122.168 138.593 120.596 137.36 119.361C136.127 118.127 134.555 117.286 132.844 116.944C131.133 116.603 129.359 116.777 127.747 117.445C126.134 118.112 124.756 119.242 123.787 120.693C122.817 122.144 122.3 123.849 122.3 125.594C122.298 126.752 122.525 127.899 122.967 128.969C123.409 130.039 124.058 131.011 124.876 131.83C125.695 132.649 126.666 133.299 127.736 133.743C128.805 134.186 129.952 134.414 131.11 134.414Z" fill="#666"/>
<path d="M131.11 143.654C157.23 143.654 178.41 135.574 178.41 125.594C178.41 115.614 157.23 107.534 131.11 107.534C104.99 107.534 83.7995 115.624 83.7995 125.594C83.7995 135.564 104.98 143.654 131.11 143.654Z" stroke="#666" stroke-width="5"/>
<path d="M115.46 134.624C128.53 157.254 146.12 171.554 154.76 166.564C163.4 161.574 159.81 139.194 146.76 116.564C133.71 93.9341 116.09 79.6341 107.45 84.6241C98.8095 89.6141 102.4 112.004 115.46 134.624Z" stroke="#666" stroke-width="5"/>
<path d="M115.459 116.564C102.399 139.194 98.8095 161.564 107.459 166.564C116.109 171.564 133.699 157.254 146.759 134.624C159.819 111.994 163.409 89.6242 154.759 84.6242C146.109 79.6242 128.529 93.9342 115.459 116.564Z" stroke="#666" stroke-width="5"/>
</g>
<defs>
<filter id="filter0_d_303_17226" x="0.723999" y="0" width="260" height="260" filterUnits="userSpaceOnUse" color-interpolation-filters="sRGB">
<feFlood flood-opacity="0" result="BackgroundImageFix"/>
<feColorMatrix in="SourceAlpha" type="matrix" values="0 0 0 0 0 0 0 0 0 0 0 0 0 0 0 0 0 0 127 0" result="hardAlpha"/>
<feOffset dy="4"/>
<feGaussianBlur stdDeviation="20"/>
<feComposite in2="hardAlpha" operator="out"/>
<feColorMatrix type="matrix" values="0 0 0 0 0.0367917 0 0 0 0 0.0348958 0 0 0 0 0.0484375 0 0 0 0.1 0"/>
<feBlend mode="normal" in2="BackgroundImageFix" result="effect1_dropShadow_303_17226"/>
<feBlend mode="normal" in="SourceGraphic" in2="effect1_dropShadow_303_17226" result="shape"/>
</filter>
<clipPath id="clip0_303_17226">
<rect width="99.61" height="88.92" fill="white" transform="translate(81.2995 81.1343)"/>
</clipPath>
</defs>
</svg>
