<svg width="261" height="261" viewBox="0 0 261 261" fill="none" xmlns="http://www.w3.org/2000/svg">
<g filter="url(#filter0_d_303_17190)">
</g>
<g clip-path="url(#clip0_303_17190)">
<path d="M80.3806 76.4851H180.381V176.485H80.3806V76.4851Z" fill="#666"/>
<path d="M128.381 113.485H133.171V121.765H120.171V158.645L119.831 158.735C119.361 158.855 113.191 158.855 111.831 158.735L110.771 158.645V121.795H97.7706V113.485H101.991C104.241 113.485 109.991 113.485 114.831 113.485C119.671 113.485 125.741 113.485 128.381 113.485ZM165.011 154.735C163.021 156.798 160.456 158.213 157.651 158.795C156.161 159.205 155.911 159.215 152.571 159.205C149.231 159.195 148.961 159.205 147.331 158.765C143.432 157.877 139.945 155.704 137.431 152.595C136.749 151.725 136.165 150.783 135.691 149.785C135.691 149.715 135.851 149.575 136.051 149.485C136.251 149.395 136.681 149.125 137.051 148.925C137.421 148.725 138.051 148.345 138.441 148.125C138.831 147.905 140.081 147.185 141.141 146.545C141.826 146.106 142.545 145.722 143.291 145.395C143.391 145.395 143.601 145.605 143.751 145.875C144.911 147.667 146.503 149.139 148.381 150.155C149.687 150.643 151.059 150.933 152.451 151.015C153.682 150.941 154.892 150.661 156.031 150.185C156.905 149.828 157.637 149.192 158.111 148.375C158.521 147.735 158.561 147.565 158.551 146.375C158.661 145.684 158.527 144.977 158.171 144.375C157.301 142.935 156.111 142.185 151.301 140.055C146.301 137.855 144.091 136.545 142.301 134.775C141.256 133.869 140.42 132.746 139.851 131.485C138.761 129.375 138.611 128.685 138.601 125.545C138.495 124.316 138.583 123.077 138.861 121.875C139.308 120.515 139.941 119.223 140.741 118.035C141.35 117.26 142.041 116.553 142.801 115.925C145.29 114.056 148.299 113.007 151.411 112.925C151.771 112.925 152.961 112.985 154.071 113.065C156.781 113.151 159.392 114.104 161.521 115.785C163.101 117.035 165.521 119.975 165.261 120.365C165.101 120.595 158.861 124.755 158.461 124.875C158.211 124.955 158.041 124.875 157.691 124.455C155.571 121.915 154.691 121.365 152.691 121.235C151.556 121.062 150.398 121.327 149.451 121.975C148.938 122.326 148.527 122.805 148.259 123.365C147.99 123.925 147.873 124.546 147.921 125.165C147.921 127.285 148.751 128.285 151.751 129.775C153.691 130.725 155.341 131.505 155.471 131.505C155.601 131.505 159.671 133.505 160.721 134.125C165.591 136.985 167.581 139.925 168.091 144.985C168.327 146.734 168.182 148.513 167.664 150.2C167.146 151.886 166.268 153.441 165.091 154.755L165.011 154.735Z" fill="black"/>
</g>
<defs>
<filter id="filter0_d_303_17190" x="0.723999" y="0.890869" width="260" height="260" filterUnits="userSpaceOnUse" color-interpolation-filters="sRGB">
<feFlood flood-opacity="0" result="BackgroundImageFix"/>
<feColorMatrix in="SourceAlpha" type="matrix" values="0 0 0 0 0 0 0 0 0 0 0 0 0 0 0 0 0 0 127 0" result="hardAlpha"/>
<feOffset dy="4"/>
<feGaussianBlur stdDeviation="20"/>
<feComposite in2="hardAlpha" operator="out"/>
<feColorMatrix type="matrix" values="0 0 0 0 0.0367917 0 0 0 0 0.0348958 0 0 0 0 0.0484375 0 0 0 0.1 0"/>
<feBlend mode="normal" in2="BackgroundImageFix" result="effect1_dropShadow_303_17190"/>
<feBlend mode="normal" in="SourceGraphic" in2="effect1_dropShadow_303_17190" result="shape"/>
</filter>
<clipPath id="clip0_303_17190">
<rect width="100" height="100" fill="white" transform="translate(80.3806 76.4851)"/>
</clipPath>
</defs>
</svg>
